<mxfile host="app.diagrams.net" agent="Mozilla/5.0 (Macintosh; Intel Mac OS X 10_15_7) AppleWebKit/537.36 (KHTML, like Gecko) Chrome/131.0.0.0 Safari/537.36" version="24.9.3">
  <diagram name="Page-1" id="gsNYX0O6HPg6yI20g63n">
    <mxGraphModel dx="3356" dy="1253" grid="1" gridSize="10" guides="1" tooltips="1" connect="1" arrows="1" fold="1" page="1" pageScale="1" pageWidth="1169" pageHeight="827" math="0" shadow="0">
      <root>
        <mxCell id="0" />
        <mxCell id="1" parent="0" />
        <mxCell id="cSorwNS9Xo1JlhqDduFi-20" value="&amp;lt;&amp;lt;import&amp;gt;&amp;gt;" style="endArrow=open;startArrow=none;endFill=0;startFill=0;endSize=8;html=1;verticalAlign=bottom;dashed=1;labelBackgroundColor=none;rounded=0;exitX=0.25;exitY=1;exitDx=0;exitDy=0;exitPerimeter=0;entryX=0.246;entryY=0.187;entryDx=0;entryDy=0;entryPerimeter=0;" parent="1" source="dcg5xdhcJVGDY37_S5At-52" target="dcg5xdhcJVGDY37_S5At-169" edge="1">
          <mxGeometry x="0.8375" y="-41" width="160" relative="1" as="geometry">
            <mxPoint x="550" y="770" as="sourcePoint" />
            <mxPoint x="666" y="1220" as="targetPoint" />
            <mxPoint as="offset" />
          </mxGeometry>
        </mxCell>
        <mxCell id="cSorwNS9Xo1JlhqDduFi-21" value="&amp;lt;&amp;lt;import&amp;gt;&amp;gt;" style="endArrow=open;startArrow=none;endFill=0;startFill=0;endSize=8;html=1;verticalAlign=bottom;dashed=1;labelBackgroundColor=none;rounded=0;entryX=0.308;entryY=0.169;entryDx=0;entryDy=0;entryPerimeter=0;" parent="1" source="dcg5xdhcJVGDY37_S5At-119" target="dcg5xdhcJVGDY37_S5At-14" edge="1">
          <mxGeometry x="0.9134" y="29" width="160" relative="1" as="geometry">
            <mxPoint x="600" y="310" as="sourcePoint" />
            <mxPoint x="745" y="730" as="targetPoint" />
            <mxPoint as="offset" />
          </mxGeometry>
        </mxCell>
        <mxCell id="cSorwNS9Xo1JlhqDduFi-19" value="&amp;lt;&amp;lt;import&amp;gt;&amp;gt;" style="endArrow=open;startArrow=none;endFill=0;startFill=0;endSize=8;html=1;verticalAlign=bottom;dashed=1;labelBackgroundColor=none;rounded=0;entryX=0.396;entryY=0.178;entryDx=0;entryDy=0;entryPerimeter=0;" parent="1" source="dcg5xdhcJVGDY37_S5At-85" target="dcg5xdhcJVGDY37_S5At-169" edge="1">
          <mxGeometry x="0.8752" y="34" width="160" relative="1" as="geometry">
            <mxPoint x="580" y="484" as="sourcePoint" />
            <mxPoint x="530" y="1505.3333333333333" as="targetPoint" />
            <mxPoint as="offset" />
          </mxGeometry>
        </mxCell>
        <mxCell id="dcg5xdhcJVGDY37_S5At-14" value="Model" style="shape=folder;fontStyle=1;tabWidth=110;tabHeight=30;tabPosition=left;html=1;boundedLbl=1;labelInHeader=1;container=1;collapsible=0;whiteSpace=wrap;" parent="1" vertex="1">
          <mxGeometry x="250" y="700" width="880" height="180" as="geometry" />
        </mxCell>
        <mxCell id="dcg5xdhcJVGDY37_S5At-51" value="" style="group" parent="dcg5xdhcJVGDY37_S5At-14" vertex="1" connectable="0">
          <mxGeometry y="30" width="880.0000000000001" height="134" as="geometry" />
        </mxCell>
        <mxCell id="dcg5xdhcJVGDY37_S5At-15" value="" style="html=1;strokeColor=none;resizeWidth=1;resizeHeight=1;fillColor=none;part=1;connectable=0;allowArrows=0;deletable=0;whiteSpace=wrap;" parent="dcg5xdhcJVGDY37_S5At-51" vertex="1">
          <mxGeometry width="880.0000000000001" height="126" relative="1" as="geometry">
            <mxPoint as="offset" />
          </mxGeometry>
        </mxCell>
        <mxCell id="dcg5xdhcJVGDY37_S5At-17" value="Email" style="swimlane;fontStyle=1;align=center;verticalAlign=top;childLayout=stackLayout;horizontal=1;startSize=26;horizontalStack=0;resizeParent=1;resizeParentMax=0;resizeLast=0;collapsible=1;marginBottom=0;whiteSpace=wrap;html=1;" parent="dcg5xdhcJVGDY37_S5At-51" vertex="1">
          <mxGeometry x="360.5" y="100" width="160" height="34" as="geometry" />
        </mxCell>
        <mxCell id="dcg5xdhcJVGDY37_S5At-19" value="" style="line;strokeWidth=1;fillColor=none;align=left;verticalAlign=middle;spacingTop=-1;spacingLeft=3;spacingRight=3;rotatable=0;labelPosition=right;points=[];portConstraint=eastwest;strokeColor=inherit;" parent="dcg5xdhcJVGDY37_S5At-17" vertex="1">
          <mxGeometry y="26" width="160" height="8" as="geometry" />
        </mxCell>
        <mxCell id="dcg5xdhcJVGDY37_S5At-21" value="NewMovieNotification" style="swimlane;fontStyle=1;align=center;verticalAlign=top;childLayout=stackLayout;horizontal=1;startSize=26;horizontalStack=0;resizeParent=1;resizeParentMax=0;resizeLast=0;collapsible=1;marginBottom=0;whiteSpace=wrap;html=1;" parent="dcg5xdhcJVGDY37_S5At-51" vertex="1">
          <mxGeometry x="530" y="20" width="160" height="34" as="geometry" />
        </mxCell>
        <mxCell id="dcg5xdhcJVGDY37_S5At-22" value="" style="line;strokeWidth=1;fillColor=none;align=left;verticalAlign=middle;spacingTop=-1;spacingLeft=3;spacingRight=3;rotatable=0;labelPosition=right;points=[];portConstraint=eastwest;strokeColor=inherit;" parent="dcg5xdhcJVGDY37_S5At-21" vertex="1">
          <mxGeometry y="26" width="160" height="8" as="geometry" />
        </mxCell>
        <mxCell id="dcg5xdhcJVGDY37_S5At-23" value="Credit" style="swimlane;fontStyle=1;align=center;verticalAlign=top;childLayout=stackLayout;horizontal=1;startSize=26;horizontalStack=0;resizeParent=1;resizeParentMax=0;resizeLast=0;collapsible=1;marginBottom=0;whiteSpace=wrap;html=1;" parent="dcg5xdhcJVGDY37_S5At-51" vertex="1">
          <mxGeometry x="530" y="60" width="160" height="34" as="geometry" />
        </mxCell>
        <mxCell id="dcg5xdhcJVGDY37_S5At-24" value="" style="line;strokeWidth=1;fillColor=none;align=left;verticalAlign=middle;spacingTop=-1;spacingLeft=3;spacingRight=3;rotatable=0;labelPosition=right;points=[];portConstraint=eastwest;strokeColor=inherit;" parent="dcg5xdhcJVGDY37_S5At-23" vertex="1">
          <mxGeometry y="26" width="160" height="8" as="geometry" />
        </mxCell>
        <mxCell id="dcg5xdhcJVGDY37_S5At-25" value="User" style="swimlane;fontStyle=1;align=center;verticalAlign=top;childLayout=stackLayout;horizontal=1;startSize=26;horizontalStack=0;resizeParent=1;resizeParentMax=0;resizeLast=0;collapsible=1;marginBottom=0;whiteSpace=wrap;html=1;" parent="dcg5xdhcJVGDY37_S5At-51" vertex="1">
          <mxGeometry x="530" y="100" width="160" height="34" as="geometry" />
        </mxCell>
        <mxCell id="dcg5xdhcJVGDY37_S5At-26" value="" style="line;strokeWidth=1;fillColor=none;align=left;verticalAlign=middle;spacingTop=-1;spacingLeft=3;spacingRight=3;rotatable=0;labelPosition=right;points=[];portConstraint=eastwest;strokeColor=inherit;" parent="dcg5xdhcJVGDY37_S5At-25" vertex="1">
          <mxGeometry y="26" width="160" height="8" as="geometry" />
        </mxCell>
        <mxCell id="dcg5xdhcJVGDY37_S5At-27" value="CreditCard" style="swimlane;fontStyle=1;align=center;verticalAlign=top;childLayout=stackLayout;horizontal=1;startSize=26;horizontalStack=0;resizeParent=1;resizeParentMax=0;resizeLast=0;collapsible=1;marginBottom=0;whiteSpace=wrap;html=1;" parent="dcg5xdhcJVGDY37_S5At-51" vertex="1">
          <mxGeometry x="700" y="60" width="160" height="34" as="geometry" />
        </mxCell>
        <mxCell id="dcg5xdhcJVGDY37_S5At-28" value="" style="line;strokeWidth=1;fillColor=none;align=left;verticalAlign=middle;spacingTop=-1;spacingLeft=3;spacingRight=3;rotatable=0;labelPosition=right;points=[];portConstraint=eastwest;strokeColor=inherit;" parent="dcg5xdhcJVGDY37_S5At-27" vertex="1">
          <mxGeometry y="26" width="160" height="8" as="geometry" />
        </mxCell>
        <mxCell id="dcg5xdhcJVGDY37_S5At-29" value="RegisteredUser" style="swimlane;fontStyle=1;align=center;verticalAlign=top;childLayout=stackLayout;horizontal=1;startSize=26;horizontalStack=0;resizeParent=1;resizeParentMax=0;resizeLast=0;collapsible=1;marginBottom=0;whiteSpace=wrap;html=1;" parent="dcg5xdhcJVGDY37_S5At-51" vertex="1">
          <mxGeometry x="700" y="20" width="160" height="34" as="geometry" />
        </mxCell>
        <mxCell id="dcg5xdhcJVGDY37_S5At-30" value="" style="line;strokeWidth=1;fillColor=none;align=left;verticalAlign=middle;spacingTop=-1;spacingLeft=3;spacingRight=3;rotatable=0;labelPosition=right;points=[];portConstraint=eastwest;strokeColor=inherit;" parent="dcg5xdhcJVGDY37_S5At-29" vertex="1">
          <mxGeometry y="26" width="160" height="8" as="geometry" />
        </mxCell>
        <mxCell id="dcg5xdhcJVGDY37_S5At-35" value="Seat" style="swimlane;fontStyle=1;align=center;verticalAlign=top;childLayout=stackLayout;horizontal=1;startSize=26;horizontalStack=0;resizeParent=1;resizeParentMax=0;resizeLast=0;collapsible=1;marginBottom=0;whiteSpace=wrap;html=1;" parent="dcg5xdhcJVGDY37_S5At-51" vertex="1">
          <mxGeometry x="20" y="20" width="160" height="34" as="geometry" />
        </mxCell>
        <mxCell id="dcg5xdhcJVGDY37_S5At-36" value="" style="line;strokeWidth=1;fillColor=none;align=left;verticalAlign=middle;spacingTop=-1;spacingLeft=3;spacingRight=3;rotatable=0;labelPosition=right;points=[];portConstraint=eastwest;strokeColor=inherit;" parent="dcg5xdhcJVGDY37_S5At-35" vertex="1">
          <mxGeometry y="26" width="160" height="8" as="geometry" />
        </mxCell>
        <mxCell id="dcg5xdhcJVGDY37_S5At-37" value="Theater" style="swimlane;fontStyle=1;align=center;verticalAlign=top;childLayout=stackLayout;horizontal=1;startSize=26;horizontalStack=0;resizeParent=1;resizeParentMax=0;resizeLast=0;collapsible=1;marginBottom=0;whiteSpace=wrap;html=1;" parent="dcg5xdhcJVGDY37_S5At-51" vertex="1">
          <mxGeometry x="20" y="60" width="160" height="34" as="geometry" />
        </mxCell>
        <mxCell id="dcg5xdhcJVGDY37_S5At-38" value="" style="line;strokeWidth=1;fillColor=none;align=left;verticalAlign=middle;spacingTop=-1;spacingLeft=3;spacingRight=3;rotatable=0;labelPosition=right;points=[];portConstraint=eastwest;strokeColor=inherit;" parent="dcg5xdhcJVGDY37_S5At-37" vertex="1">
          <mxGeometry y="26" width="160" height="8" as="geometry" />
        </mxCell>
        <mxCell id="dcg5xdhcJVGDY37_S5At-39" value="Showtime" style="swimlane;fontStyle=1;align=center;verticalAlign=top;childLayout=stackLayout;horizontal=1;startSize=26;horizontalStack=0;resizeParent=1;resizeParentMax=0;resizeLast=0;collapsible=1;marginBottom=0;whiteSpace=wrap;html=1;" parent="dcg5xdhcJVGDY37_S5At-51" vertex="1">
          <mxGeometry x="20" y="100" width="160" height="34" as="geometry" />
        </mxCell>
        <mxCell id="dcg5xdhcJVGDY37_S5At-40" value="" style="line;strokeWidth=1;fillColor=none;align=left;verticalAlign=middle;spacingTop=-1;spacingLeft=3;spacingRight=3;rotatable=0;labelPosition=right;points=[];portConstraint=eastwest;strokeColor=inherit;" parent="dcg5xdhcJVGDY37_S5At-39" vertex="1">
          <mxGeometry y="26" width="160" height="8" as="geometry" />
        </mxCell>
        <mxCell id="dcg5xdhcJVGDY37_S5At-41" value="Movie" style="swimlane;fontStyle=1;align=center;verticalAlign=top;childLayout=stackLayout;horizontal=1;startSize=26;horizontalStack=0;resizeParent=1;resizeParentMax=0;resizeLast=0;collapsible=1;marginBottom=0;whiteSpace=wrap;html=1;" parent="dcg5xdhcJVGDY37_S5At-51" vertex="1">
          <mxGeometry x="190" y="20" width="160" height="34" as="geometry" />
        </mxCell>
        <mxCell id="dcg5xdhcJVGDY37_S5At-42" value="" style="line;strokeWidth=1;fillColor=none;align=left;verticalAlign=middle;spacingTop=-1;spacingLeft=3;spacingRight=3;rotatable=0;labelPosition=right;points=[];portConstraint=eastwest;strokeColor=inherit;" parent="dcg5xdhcJVGDY37_S5At-41" vertex="1">
          <mxGeometry y="26" width="160" height="8" as="geometry" />
        </mxCell>
        <mxCell id="dcg5xdhcJVGDY37_S5At-43" value="Cart" style="swimlane;fontStyle=1;align=center;verticalAlign=top;childLayout=stackLayout;horizontal=1;startSize=26;horizontalStack=0;resizeParent=1;resizeParentMax=0;resizeLast=0;collapsible=1;marginBottom=0;whiteSpace=wrap;html=1;" parent="dcg5xdhcJVGDY37_S5At-51" vertex="1">
          <mxGeometry x="190" y="100" width="160" height="34" as="geometry" />
        </mxCell>
        <mxCell id="dcg5xdhcJVGDY37_S5At-44" value="" style="line;strokeWidth=1;fillColor=none;align=left;verticalAlign=middle;spacingTop=-1;spacingLeft=3;spacingRight=3;rotatable=0;labelPosition=right;points=[];portConstraint=eastwest;strokeColor=inherit;" parent="dcg5xdhcJVGDY37_S5At-43" vertex="1">
          <mxGeometry y="26" width="160" height="8" as="geometry" />
        </mxCell>
        <mxCell id="dcg5xdhcJVGDY37_S5At-45" value="Ticket" style="swimlane;fontStyle=1;align=center;verticalAlign=top;childLayout=stackLayout;horizontal=1;startSize=26;horizontalStack=0;resizeParent=1;resizeParentMax=0;resizeLast=0;collapsible=1;marginBottom=0;whiteSpace=wrap;html=1;" parent="dcg5xdhcJVGDY37_S5At-51" vertex="1">
          <mxGeometry x="190" y="60" width="160" height="34" as="geometry" />
        </mxCell>
        <mxCell id="dcg5xdhcJVGDY37_S5At-46" value="" style="line;strokeWidth=1;fillColor=none;align=left;verticalAlign=middle;spacingTop=-1;spacingLeft=3;spacingRight=3;rotatable=0;labelPosition=right;points=[];portConstraint=eastwest;strokeColor=inherit;" parent="dcg5xdhcJVGDY37_S5At-45" vertex="1">
          <mxGeometry y="26" width="160" height="8" as="geometry" />
        </mxCell>
        <mxCell id="dcg5xdhcJVGDY37_S5At-49" value="Receipt" style="swimlane;fontStyle=1;align=center;verticalAlign=top;childLayout=stackLayout;horizontal=1;startSize=26;horizontalStack=0;resizeParent=1;resizeParentMax=0;resizeLast=0;collapsible=1;marginBottom=0;whiteSpace=wrap;html=1;" parent="dcg5xdhcJVGDY37_S5At-51" vertex="1">
          <mxGeometry x="360.5" y="60" width="160" height="34" as="geometry" />
        </mxCell>
        <mxCell id="dcg5xdhcJVGDY37_S5At-50" value="" style="line;strokeWidth=1;fillColor=none;align=left;verticalAlign=middle;spacingTop=-1;spacingLeft=3;spacingRight=3;rotatable=0;labelPosition=right;points=[];portConstraint=eastwest;strokeColor=inherit;" parent="dcg5xdhcJVGDY37_S5At-49" vertex="1">
          <mxGeometry y="26" width="160" height="8" as="geometry" />
        </mxCell>
        <mxCell id="dcg5xdhcJVGDY37_S5At-47" value="Payment" style="swimlane;fontStyle=1;align=center;verticalAlign=top;childLayout=stackLayout;horizontal=1;startSize=26;horizontalStack=0;resizeParent=1;resizeParentMax=0;resizeLast=0;collapsible=1;marginBottom=0;whiteSpace=wrap;html=1;" parent="dcg5xdhcJVGDY37_S5At-51" vertex="1">
          <mxGeometry x="360.5" y="20" width="160" height="34" as="geometry" />
        </mxCell>
        <mxCell id="dcg5xdhcJVGDY37_S5At-48" value="" style="line;strokeWidth=1;fillColor=none;align=left;verticalAlign=middle;spacingTop=-1;spacingLeft=3;spacingRight=3;rotatable=0;labelPosition=right;points=[];portConstraint=eastwest;strokeColor=inherit;" parent="dcg5xdhcJVGDY37_S5At-47" vertex="1">
          <mxGeometry y="26" width="160" height="8" as="geometry" />
        </mxCell>
        <mxCell id="dcg5xdhcJVGDY37_S5At-52" value="Repository" style="shape=folder;fontStyle=1;tabWidth=110;tabHeight=30;tabPosition=left;html=1;boundedLbl=1;labelInHeader=1;container=1;collapsible=0;whiteSpace=wrap;" parent="1" vertex="1">
          <mxGeometry x="250" y="480" width="880" height="180" as="geometry" />
        </mxCell>
        <mxCell id="dcg5xdhcJVGDY37_S5At-53" value="" style="group" parent="dcg5xdhcJVGDY37_S5At-52" vertex="1" connectable="0">
          <mxGeometry y="30" width="880.0000000000001" height="134" as="geometry" />
        </mxCell>
        <mxCell id="dcg5xdhcJVGDY37_S5At-54" value="" style="html=1;strokeColor=none;resizeWidth=1;resizeHeight=1;fillColor=none;part=1;connectable=0;allowArrows=0;deletable=0;whiteSpace=wrap;" parent="dcg5xdhcJVGDY37_S5At-53" vertex="1">
          <mxGeometry width="880.0000000000001" height="126" relative="1" as="geometry">
            <mxPoint as="offset" />
          </mxGeometry>
        </mxCell>
        <mxCell id="dcg5xdhcJVGDY37_S5At-55" value="Email" style="swimlane;fontStyle=1;align=center;verticalAlign=top;childLayout=stackLayout;horizontal=1;startSize=26;horizontalStack=0;resizeParent=1;resizeParentMax=0;resizeLast=0;collapsible=1;marginBottom=0;whiteSpace=wrap;html=1;" parent="dcg5xdhcJVGDY37_S5At-53" vertex="1">
          <mxGeometry x="360.5" y="100" width="160" height="34" as="geometry" />
        </mxCell>
        <mxCell id="dcg5xdhcJVGDY37_S5At-56" value="" style="line;strokeWidth=1;fillColor=none;align=left;verticalAlign=middle;spacingTop=-1;spacingLeft=3;spacingRight=3;rotatable=0;labelPosition=right;points=[];portConstraint=eastwest;strokeColor=inherit;" parent="dcg5xdhcJVGDY37_S5At-55" vertex="1">
          <mxGeometry y="26" width="160" height="8" as="geometry" />
        </mxCell>
        <mxCell id="dcg5xdhcJVGDY37_S5At-57" value="NewMovieNotification" style="swimlane;fontStyle=1;align=center;verticalAlign=top;childLayout=stackLayout;horizontal=1;startSize=26;horizontalStack=0;resizeParent=1;resizeParentMax=0;resizeLast=0;collapsible=1;marginBottom=0;whiteSpace=wrap;html=1;" parent="dcg5xdhcJVGDY37_S5At-53" vertex="1">
          <mxGeometry x="530" y="20" width="160" height="34" as="geometry" />
        </mxCell>
        <mxCell id="dcg5xdhcJVGDY37_S5At-58" value="" style="line;strokeWidth=1;fillColor=none;align=left;verticalAlign=middle;spacingTop=-1;spacingLeft=3;spacingRight=3;rotatable=0;labelPosition=right;points=[];portConstraint=eastwest;strokeColor=inherit;" parent="dcg5xdhcJVGDY37_S5At-57" vertex="1">
          <mxGeometry y="26" width="160" height="8" as="geometry" />
        </mxCell>
        <mxCell id="dcg5xdhcJVGDY37_S5At-59" value="Credit" style="swimlane;fontStyle=1;align=center;verticalAlign=top;childLayout=stackLayout;horizontal=1;startSize=26;horizontalStack=0;resizeParent=1;resizeParentMax=0;resizeLast=0;collapsible=1;marginBottom=0;whiteSpace=wrap;html=1;" parent="dcg5xdhcJVGDY37_S5At-53" vertex="1">
          <mxGeometry x="530" y="60" width="160" height="34" as="geometry" />
        </mxCell>
        <mxCell id="dcg5xdhcJVGDY37_S5At-60" value="" style="line;strokeWidth=1;fillColor=none;align=left;verticalAlign=middle;spacingTop=-1;spacingLeft=3;spacingRight=3;rotatable=0;labelPosition=right;points=[];portConstraint=eastwest;strokeColor=inherit;" parent="dcg5xdhcJVGDY37_S5At-59" vertex="1">
          <mxGeometry y="26" width="160" height="8" as="geometry" />
        </mxCell>
        <mxCell id="dcg5xdhcJVGDY37_S5At-61" value="User" style="swimlane;fontStyle=1;align=center;verticalAlign=top;childLayout=stackLayout;horizontal=1;startSize=26;horizontalStack=0;resizeParent=1;resizeParentMax=0;resizeLast=0;collapsible=1;marginBottom=0;whiteSpace=wrap;html=1;" parent="dcg5xdhcJVGDY37_S5At-53" vertex="1">
          <mxGeometry x="530" y="100" width="160" height="34" as="geometry" />
        </mxCell>
        <mxCell id="dcg5xdhcJVGDY37_S5At-62" value="" style="line;strokeWidth=1;fillColor=none;align=left;verticalAlign=middle;spacingTop=-1;spacingLeft=3;spacingRight=3;rotatable=0;labelPosition=right;points=[];portConstraint=eastwest;strokeColor=inherit;" parent="dcg5xdhcJVGDY37_S5At-61" vertex="1">
          <mxGeometry y="26" width="160" height="8" as="geometry" />
        </mxCell>
        <mxCell id="dcg5xdhcJVGDY37_S5At-63" value="CreditCard" style="swimlane;fontStyle=1;align=center;verticalAlign=top;childLayout=stackLayout;horizontal=1;startSize=26;horizontalStack=0;resizeParent=1;resizeParentMax=0;resizeLast=0;collapsible=1;marginBottom=0;whiteSpace=wrap;html=1;" parent="dcg5xdhcJVGDY37_S5At-53" vertex="1">
          <mxGeometry x="700" y="60" width="160" height="34" as="geometry" />
        </mxCell>
        <mxCell id="dcg5xdhcJVGDY37_S5At-64" value="" style="line;strokeWidth=1;fillColor=none;align=left;verticalAlign=middle;spacingTop=-1;spacingLeft=3;spacingRight=3;rotatable=0;labelPosition=right;points=[];portConstraint=eastwest;strokeColor=inherit;" parent="dcg5xdhcJVGDY37_S5At-63" vertex="1">
          <mxGeometry y="26" width="160" height="8" as="geometry" />
        </mxCell>
        <mxCell id="dcg5xdhcJVGDY37_S5At-65" value="RegisteredUser" style="swimlane;fontStyle=1;align=center;verticalAlign=top;childLayout=stackLayout;horizontal=1;startSize=26;horizontalStack=0;resizeParent=1;resizeParentMax=0;resizeLast=0;collapsible=1;marginBottom=0;whiteSpace=wrap;html=1;" parent="dcg5xdhcJVGDY37_S5At-53" vertex="1">
          <mxGeometry x="700" y="20" width="160" height="34" as="geometry" />
        </mxCell>
        <mxCell id="dcg5xdhcJVGDY37_S5At-66" value="" style="line;strokeWidth=1;fillColor=none;align=left;verticalAlign=middle;spacingTop=-1;spacingLeft=3;spacingRight=3;rotatable=0;labelPosition=right;points=[];portConstraint=eastwest;strokeColor=inherit;" parent="dcg5xdhcJVGDY37_S5At-65" vertex="1">
          <mxGeometry y="26" width="160" height="8" as="geometry" />
        </mxCell>
        <mxCell id="dcg5xdhcJVGDY37_S5At-69" value="Seat" style="swimlane;fontStyle=1;align=center;verticalAlign=top;childLayout=stackLayout;horizontal=1;startSize=26;horizontalStack=0;resizeParent=1;resizeParentMax=0;resizeLast=0;collapsible=1;marginBottom=0;whiteSpace=wrap;html=1;" parent="dcg5xdhcJVGDY37_S5At-53" vertex="1">
          <mxGeometry x="20" y="20" width="160" height="34" as="geometry" />
        </mxCell>
        <mxCell id="dcg5xdhcJVGDY37_S5At-70" value="" style="line;strokeWidth=1;fillColor=none;align=left;verticalAlign=middle;spacingTop=-1;spacingLeft=3;spacingRight=3;rotatable=0;labelPosition=right;points=[];portConstraint=eastwest;strokeColor=inherit;" parent="dcg5xdhcJVGDY37_S5At-69" vertex="1">
          <mxGeometry y="26" width="160" height="8" as="geometry" />
        </mxCell>
        <mxCell id="dcg5xdhcJVGDY37_S5At-71" value="Theater" style="swimlane;fontStyle=1;align=center;verticalAlign=top;childLayout=stackLayout;horizontal=1;startSize=26;horizontalStack=0;resizeParent=1;resizeParentMax=0;resizeLast=0;collapsible=1;marginBottom=0;whiteSpace=wrap;html=1;" parent="dcg5xdhcJVGDY37_S5At-53" vertex="1">
          <mxGeometry x="20" y="60" width="160" height="34" as="geometry" />
        </mxCell>
        <mxCell id="dcg5xdhcJVGDY37_S5At-72" value="" style="line;strokeWidth=1;fillColor=none;align=left;verticalAlign=middle;spacingTop=-1;spacingLeft=3;spacingRight=3;rotatable=0;labelPosition=right;points=[];portConstraint=eastwest;strokeColor=inherit;" parent="dcg5xdhcJVGDY37_S5At-71" vertex="1">
          <mxGeometry y="26" width="160" height="8" as="geometry" />
        </mxCell>
        <mxCell id="dcg5xdhcJVGDY37_S5At-73" value="Showtime" style="swimlane;fontStyle=1;align=center;verticalAlign=top;childLayout=stackLayout;horizontal=1;startSize=26;horizontalStack=0;resizeParent=1;resizeParentMax=0;resizeLast=0;collapsible=1;marginBottom=0;whiteSpace=wrap;html=1;" parent="dcg5xdhcJVGDY37_S5At-53" vertex="1">
          <mxGeometry x="20" y="100" width="160" height="34" as="geometry" />
        </mxCell>
        <mxCell id="dcg5xdhcJVGDY37_S5At-74" value="" style="line;strokeWidth=1;fillColor=none;align=left;verticalAlign=middle;spacingTop=-1;spacingLeft=3;spacingRight=3;rotatable=0;labelPosition=right;points=[];portConstraint=eastwest;strokeColor=inherit;" parent="dcg5xdhcJVGDY37_S5At-73" vertex="1">
          <mxGeometry y="26" width="160" height="8" as="geometry" />
        </mxCell>
        <mxCell id="dcg5xdhcJVGDY37_S5At-75" value="Movie" style="swimlane;fontStyle=1;align=center;verticalAlign=top;childLayout=stackLayout;horizontal=1;startSize=26;horizontalStack=0;resizeParent=1;resizeParentMax=0;resizeLast=0;collapsible=1;marginBottom=0;whiteSpace=wrap;html=1;" parent="dcg5xdhcJVGDY37_S5At-53" vertex="1">
          <mxGeometry x="190" y="20" width="160" height="34" as="geometry" />
        </mxCell>
        <mxCell id="dcg5xdhcJVGDY37_S5At-76" value="" style="line;strokeWidth=1;fillColor=none;align=left;verticalAlign=middle;spacingTop=-1;spacingLeft=3;spacingRight=3;rotatable=0;labelPosition=right;points=[];portConstraint=eastwest;strokeColor=inherit;" parent="dcg5xdhcJVGDY37_S5At-75" vertex="1">
          <mxGeometry y="26" width="160" height="8" as="geometry" />
        </mxCell>
        <mxCell id="dcg5xdhcJVGDY37_S5At-77" value="Cart" style="swimlane;fontStyle=1;align=center;verticalAlign=top;childLayout=stackLayout;horizontal=1;startSize=26;horizontalStack=0;resizeParent=1;resizeParentMax=0;resizeLast=0;collapsible=1;marginBottom=0;whiteSpace=wrap;html=1;" parent="dcg5xdhcJVGDY37_S5At-53" vertex="1">
          <mxGeometry x="190" y="100" width="160" height="34" as="geometry" />
        </mxCell>
        <mxCell id="dcg5xdhcJVGDY37_S5At-78" value="" style="line;strokeWidth=1;fillColor=none;align=left;verticalAlign=middle;spacingTop=-1;spacingLeft=3;spacingRight=3;rotatable=0;labelPosition=right;points=[];portConstraint=eastwest;strokeColor=inherit;" parent="dcg5xdhcJVGDY37_S5At-77" vertex="1">
          <mxGeometry y="26" width="160" height="8" as="geometry" />
        </mxCell>
        <mxCell id="dcg5xdhcJVGDY37_S5At-79" value="Ticket" style="swimlane;fontStyle=1;align=center;verticalAlign=top;childLayout=stackLayout;horizontal=1;startSize=26;horizontalStack=0;resizeParent=1;resizeParentMax=0;resizeLast=0;collapsible=1;marginBottom=0;whiteSpace=wrap;html=1;" parent="dcg5xdhcJVGDY37_S5At-53" vertex="1">
          <mxGeometry x="190" y="60" width="160" height="34" as="geometry" />
        </mxCell>
        <mxCell id="dcg5xdhcJVGDY37_S5At-80" value="" style="line;strokeWidth=1;fillColor=none;align=left;verticalAlign=middle;spacingTop=-1;spacingLeft=3;spacingRight=3;rotatable=0;labelPosition=right;points=[];portConstraint=eastwest;strokeColor=inherit;" parent="dcg5xdhcJVGDY37_S5At-79" vertex="1">
          <mxGeometry y="26" width="160" height="8" as="geometry" />
        </mxCell>
        <mxCell id="dcg5xdhcJVGDY37_S5At-81" value="Receipt" style="swimlane;fontStyle=1;align=center;verticalAlign=top;childLayout=stackLayout;horizontal=1;startSize=26;horizontalStack=0;resizeParent=1;resizeParentMax=0;resizeLast=0;collapsible=1;marginBottom=0;whiteSpace=wrap;html=1;" parent="dcg5xdhcJVGDY37_S5At-53" vertex="1">
          <mxGeometry x="360.5" y="60" width="160" height="34" as="geometry" />
        </mxCell>
        <mxCell id="dcg5xdhcJVGDY37_S5At-82" value="" style="line;strokeWidth=1;fillColor=none;align=left;verticalAlign=middle;spacingTop=-1;spacingLeft=3;spacingRight=3;rotatable=0;labelPosition=right;points=[];portConstraint=eastwest;strokeColor=inherit;" parent="dcg5xdhcJVGDY37_S5At-81" vertex="1">
          <mxGeometry y="26" width="160" height="8" as="geometry" />
        </mxCell>
        <mxCell id="dcg5xdhcJVGDY37_S5At-83" value="Payment" style="swimlane;fontStyle=1;align=center;verticalAlign=top;childLayout=stackLayout;horizontal=1;startSize=26;horizontalStack=0;resizeParent=1;resizeParentMax=0;resizeLast=0;collapsible=1;marginBottom=0;whiteSpace=wrap;html=1;" parent="dcg5xdhcJVGDY37_S5At-53" vertex="1">
          <mxGeometry x="360.5" y="20" width="160" height="34" as="geometry" />
        </mxCell>
        <mxCell id="dcg5xdhcJVGDY37_S5At-84" value="" style="line;strokeWidth=1;fillColor=none;align=left;verticalAlign=middle;spacingTop=-1;spacingLeft=3;spacingRight=3;rotatable=0;labelPosition=right;points=[];portConstraint=eastwest;strokeColor=inherit;" parent="dcg5xdhcJVGDY37_S5At-83" vertex="1">
          <mxGeometry y="26" width="160" height="8" as="geometry" />
        </mxCell>
        <mxCell id="dcg5xdhcJVGDY37_S5At-135" value="" style="group" parent="1" vertex="1" connectable="0">
          <mxGeometry x="250" y="300" width="710" height="164" as="geometry" />
        </mxCell>
        <mxCell id="dcg5xdhcJVGDY37_S5At-85" value="Service" style="shape=folder;fontStyle=1;tabWidth=110;tabHeight=30;tabPosition=left;html=1;boundedLbl=1;labelInHeader=1;container=1;collapsible=0;whiteSpace=wrap;" parent="dcg5xdhcJVGDY37_S5At-135" vertex="1">
          <mxGeometry width="709.9999999999999" height="140" as="geometry" />
        </mxCell>
        <mxCell id="dcg5xdhcJVGDY37_S5At-86" value="" style="group" parent="dcg5xdhcJVGDY37_S5At-135" vertex="1" connectable="0">
          <mxGeometry y="30" width="710" height="134" as="geometry" />
        </mxCell>
        <mxCell id="dcg5xdhcJVGDY37_S5At-87" value="" style="html=1;strokeColor=none;resizeWidth=1;resizeHeight=1;fillColor=none;part=1;connectable=0;allowArrows=0;deletable=0;whiteSpace=wrap;" parent="dcg5xdhcJVGDY37_S5At-86" vertex="1">
          <mxGeometry width="710" height="126" relative="1" as="geometry">
            <mxPoint as="offset" />
          </mxGeometry>
        </mxCell>
        <mxCell id="dcg5xdhcJVGDY37_S5At-102" value="Movie" style="swimlane;fontStyle=1;align=center;verticalAlign=top;childLayout=stackLayout;horizontal=1;startSize=26;horizontalStack=0;resizeParent=1;resizeParentMax=0;resizeLast=0;collapsible=1;marginBottom=0;whiteSpace=wrap;html=1;" parent="dcg5xdhcJVGDY37_S5At-86" vertex="1">
          <mxGeometry x="20" y="20" width="160" height="34" as="geometry" />
        </mxCell>
        <mxCell id="dcg5xdhcJVGDY37_S5At-103" value="" style="line;strokeWidth=1;fillColor=none;align=left;verticalAlign=middle;spacingTop=-1;spacingLeft=3;spacingRight=3;rotatable=0;labelPosition=right;points=[];portConstraint=eastwest;strokeColor=inherit;" parent="dcg5xdhcJVGDY37_S5At-102" vertex="1">
          <mxGeometry y="26" width="160" height="8" as="geometry" />
        </mxCell>
        <mxCell id="cSorwNS9Xo1JlhqDduFi-24" value="Payment" style="swimlane;fontStyle=1;align=center;verticalAlign=top;childLayout=stackLayout;horizontal=1;startSize=26;horizontalStack=0;resizeParent=1;resizeParentMax=0;resizeLast=0;collapsible=1;marginBottom=0;whiteSpace=wrap;html=1;" parent="dcg5xdhcJVGDY37_S5At-86" vertex="1">
          <mxGeometry x="20" y="60" width="160" height="34" as="geometry" />
        </mxCell>
        <mxCell id="cSorwNS9Xo1JlhqDduFi-25" value="" style="line;strokeWidth=1;fillColor=none;align=left;verticalAlign=middle;spacingTop=-1;spacingLeft=3;spacingRight=3;rotatable=0;labelPosition=right;points=[];portConstraint=eastwest;strokeColor=inherit;" parent="cSorwNS9Xo1JlhqDduFi-24" vertex="1">
          <mxGeometry y="26" width="160" height="8" as="geometry" />
        </mxCell>
        <mxCell id="dcg5xdhcJVGDY37_S5At-108" value="Theater" style="swimlane;fontStyle=1;align=center;verticalAlign=top;childLayout=stackLayout;horizontal=1;startSize=26;horizontalStack=0;resizeParent=1;resizeParentMax=0;resizeLast=0;collapsible=1;marginBottom=0;whiteSpace=wrap;html=1;" parent="dcg5xdhcJVGDY37_S5At-86" vertex="1">
          <mxGeometry x="190" y="20" width="160" height="34" as="geometry" />
        </mxCell>
        <mxCell id="dcg5xdhcJVGDY37_S5At-109" value="" style="line;strokeWidth=1;fillColor=none;align=left;verticalAlign=middle;spacingTop=-1;spacingLeft=3;spacingRight=3;rotatable=0;labelPosition=right;points=[];portConstraint=eastwest;strokeColor=inherit;" parent="dcg5xdhcJVGDY37_S5At-108" vertex="1">
          <mxGeometry y="26" width="160" height="8" as="geometry" />
        </mxCell>
        <mxCell id="cSorwNS9Xo1JlhqDduFi-2" value="CustomUserDetails" style="swimlane;fontStyle=1;align=center;verticalAlign=top;childLayout=stackLayout;horizontal=1;startSize=26;horizontalStack=0;resizeParent=1;resizeParentMax=0;resizeLast=0;collapsible=1;marginBottom=0;whiteSpace=wrap;html=1;" parent="dcg5xdhcJVGDY37_S5At-86" vertex="1">
          <mxGeometry x="190" y="60" width="160" height="34" as="geometry" />
        </mxCell>
        <mxCell id="cSorwNS9Xo1JlhqDduFi-3" value="" style="line;strokeWidth=1;fillColor=none;align=left;verticalAlign=middle;spacingTop=-1;spacingLeft=3;spacingRight=3;rotatable=0;labelPosition=right;points=[];portConstraint=eastwest;strokeColor=inherit;" parent="cSorwNS9Xo1JlhqDduFi-2" vertex="1">
          <mxGeometry y="26" width="160" height="8" as="geometry" />
        </mxCell>
        <mxCell id="dcg5xdhcJVGDY37_S5At-116" value="User" style="swimlane;fontStyle=1;align=center;verticalAlign=top;childLayout=stackLayout;horizontal=1;startSize=26;horizontalStack=0;resizeParent=1;resizeParentMax=0;resizeLast=0;collapsible=1;marginBottom=0;whiteSpace=wrap;html=1;" parent="dcg5xdhcJVGDY37_S5At-86" vertex="1">
          <mxGeometry x="360.5" y="20" width="160" height="34" as="geometry" />
        </mxCell>
        <mxCell id="dcg5xdhcJVGDY37_S5At-117" value="" style="line;strokeWidth=1;fillColor=none;align=left;verticalAlign=middle;spacingTop=-1;spacingLeft=3;spacingRight=3;rotatable=0;labelPosition=right;points=[];portConstraint=eastwest;strokeColor=inherit;" parent="dcg5xdhcJVGDY37_S5At-116" vertex="1">
          <mxGeometry y="26" width="160" height="8" as="geometry" />
        </mxCell>
        <mxCell id="dcg5xdhcJVGDY37_S5At-98" value="Email" style="swimlane;fontStyle=1;align=center;verticalAlign=top;childLayout=stackLayout;horizontal=1;startSize=26;horizontalStack=0;resizeParent=1;resizeParentMax=0;resizeLast=0;collapsible=1;marginBottom=0;whiteSpace=wrap;html=1;" parent="dcg5xdhcJVGDY37_S5At-86" vertex="1">
          <mxGeometry x="360.5" y="60" width="160" height="34" as="geometry" />
        </mxCell>
        <mxCell id="dcg5xdhcJVGDY37_S5At-99" value="" style="line;strokeWidth=1;fillColor=none;align=left;verticalAlign=middle;spacingTop=-1;spacingLeft=3;spacingRight=3;rotatable=0;labelPosition=right;points=[];portConstraint=eastwest;strokeColor=inherit;" parent="dcg5xdhcJVGDY37_S5At-98" vertex="1">
          <mxGeometry y="26" width="160" height="8" as="geometry" />
        </mxCell>
        <mxCell id="cSorwNS9Xo1JlhqDduFi-22" value="TMDB" style="swimlane;fontStyle=1;align=center;verticalAlign=top;childLayout=stackLayout;horizontal=1;startSize=26;horizontalStack=0;resizeParent=1;resizeParentMax=0;resizeLast=0;collapsible=1;marginBottom=0;whiteSpace=wrap;html=1;" parent="dcg5xdhcJVGDY37_S5At-86" vertex="1">
          <mxGeometry x="530" y="20" width="160" height="34" as="geometry" />
        </mxCell>
        <mxCell id="cSorwNS9Xo1JlhqDduFi-23" value="" style="line;strokeWidth=1;fillColor=none;align=left;verticalAlign=middle;spacingTop=-1;spacingLeft=3;spacingRight=3;rotatable=0;labelPosition=right;points=[];portConstraint=eastwest;strokeColor=inherit;" parent="cSorwNS9Xo1JlhqDduFi-22" vertex="1">
          <mxGeometry y="26" width="160" height="8" as="geometry" />
        </mxCell>
        <mxCell id="dcg5xdhcJVGDY37_S5At-151" value="ACME" style="shape=folder;fontStyle=1;tabWidth=80;tabHeight=30;tabPosition=left;html=1;boundedLbl=1;labelInHeader=1;container=1;collapsible=0;whiteSpace=wrap;" parent="1" vertex="1">
          <mxGeometry x="40" y="110" width="110" height="990" as="geometry" />
        </mxCell>
        <mxCell id="dcg5xdhcJVGDY37_S5At-152" value="" style="html=1;strokeColor=none;resizeWidth=1;resizeHeight=1;fillColor=none;part=1;connectable=0;allowArrows=0;deletable=0;whiteSpace=wrap;" parent="dcg5xdhcJVGDY37_S5At-151" vertex="1">
          <mxGeometry width="109.99999999999999" height="692.9999999999999" relative="1" as="geometry">
            <mxPoint y="30" as="offset" />
          </mxGeometry>
        </mxCell>
        <mxCell id="cSorwNS9Xo1JlhqDduFi-26" value="ACME&lt;div&gt;Application&lt;/div&gt;" style="swimlane;fontStyle=1;align=center;verticalAlign=top;childLayout=stackLayout;horizontal=1;startSize=38;horizontalStack=0;resizeParent=1;resizeParentMax=0;resizeLast=0;collapsible=1;marginBottom=0;whiteSpace=wrap;html=1;" parent="dcg5xdhcJVGDY37_S5At-151" vertex="1">
          <mxGeometry x="10" y="50" width="90" height="42" as="geometry" />
        </mxCell>
        <mxCell id="cSorwNS9Xo1JlhqDduFi-27" value="" style="line;strokeWidth=1;fillColor=none;align=left;verticalAlign=middle;spacingTop=-1;spacingLeft=3;spacingRight=3;rotatable=0;labelPosition=right;points=[];portConstraint=eastwest;strokeColor=inherit;" parent="cSorwNS9Xo1JlhqDduFi-26" vertex="1">
          <mxGeometry y="38" width="90" height="4" as="geometry" />
        </mxCell>
        <mxCell id="dcg5xdhcJVGDY37_S5At-154" value="" style="edgeStyle=none;html=1;startArrow=sysMLPackCont;startSize=12;endArrow=none;rounded=0;exitX=0;exitY=0;exitDx=110;exitDy=30;exitPerimeter=0;entryX=0;entryY=0;entryDx=0;entryDy=30;entryPerimeter=0;" parent="1" source="dcg5xdhcJVGDY37_S5At-151" target="dcg5xdhcJVGDY37_S5At-119" edge="1">
          <mxGeometry width="160" relative="1" as="geometry">
            <mxPoint x="30" y="180" as="sourcePoint" />
            <mxPoint x="190" y="180" as="targetPoint" />
          </mxGeometry>
        </mxCell>
        <mxCell id="dcg5xdhcJVGDY37_S5At-158" value="&amp;lt;&amp;lt;contains&amp;gt;&amp;gt;" style="edgeLabel;html=1;align=center;verticalAlign=middle;resizable=0;points=[];" parent="dcg5xdhcJVGDY37_S5At-154" vertex="1" connectable="0">
          <mxGeometry x="0.1201" relative="1" as="geometry">
            <mxPoint x="-6" y="-19" as="offset" />
          </mxGeometry>
        </mxCell>
        <mxCell id="dcg5xdhcJVGDY37_S5At-159" value="" style="edgeStyle=none;html=1;startArrow=sysMLPackCont;startSize=12;endArrow=none;rounded=0;entryX=0;entryY=0;entryDx=0;entryDy=30;entryPerimeter=0;exitX=1.018;exitY=0.191;exitDx=0;exitDy=0;exitPerimeter=0;" parent="1" source="dcg5xdhcJVGDY37_S5At-151" target="dcg5xdhcJVGDY37_S5At-85" edge="1">
          <mxGeometry width="160" relative="1" as="geometry">
            <mxPoint x="200" y="80" as="sourcePoint" />
            <mxPoint x="260" y="60" as="targetPoint" />
          </mxGeometry>
        </mxCell>
        <mxCell id="dcg5xdhcJVGDY37_S5At-160" value="&amp;lt;&amp;lt;contains&amp;gt;&amp;gt;" style="edgeLabel;html=1;align=center;verticalAlign=middle;resizable=0;points=[];" parent="dcg5xdhcJVGDY37_S5At-159" vertex="1" connectable="0">
          <mxGeometry x="0.1201" relative="1" as="geometry">
            <mxPoint x="-6" y="-19" as="offset" />
          </mxGeometry>
        </mxCell>
        <mxCell id="dcg5xdhcJVGDY37_S5At-161" value="" style="edgeStyle=none;html=1;startArrow=sysMLPackCont;startSize=12;endArrow=none;rounded=0;entryX=0;entryY=0;entryDx=0;entryDy=30;entryPerimeter=0;exitX=1.005;exitY=0.347;exitDx=0;exitDy=0;exitPerimeter=0;" parent="1" source="dcg5xdhcJVGDY37_S5At-151" target="dcg5xdhcJVGDY37_S5At-52" edge="1">
          <mxGeometry width="160" relative="1" as="geometry">
            <mxPoint x="150" y="682" as="sourcePoint" />
            <mxPoint x="250" y="350" as="targetPoint" />
          </mxGeometry>
        </mxCell>
        <mxCell id="dcg5xdhcJVGDY37_S5At-162" value="&amp;lt;&amp;lt;contains&amp;gt;&amp;gt;" style="edgeLabel;html=1;align=center;verticalAlign=middle;resizable=0;points=[];" parent="dcg5xdhcJVGDY37_S5At-161" vertex="1" connectable="0">
          <mxGeometry x="0.1201" relative="1" as="geometry">
            <mxPoint x="-6" y="-19" as="offset" />
          </mxGeometry>
        </mxCell>
        <mxCell id="dcg5xdhcJVGDY37_S5At-167" value="" style="edgeStyle=none;html=1;startArrow=sysMLPackCont;startSize=12;endArrow=none;rounded=0;entryX=0;entryY=0;entryDx=0;entryDy=30;entryPerimeter=0;exitX=0.992;exitY=0.539;exitDx=0;exitDy=0;exitPerimeter=0;" parent="1" source="dcg5xdhcJVGDY37_S5At-151" target="dcg5xdhcJVGDY37_S5At-14" edge="1">
          <mxGeometry width="160" relative="1" as="geometry">
            <mxPoint x="149" y="787" as="sourcePoint" />
            <mxPoint x="210" y="610" as="targetPoint" />
          </mxGeometry>
        </mxCell>
        <mxCell id="dcg5xdhcJVGDY37_S5At-168" value="&amp;lt;&amp;lt;contains&amp;gt;&amp;gt;" style="edgeLabel;html=1;align=center;verticalAlign=middle;resizable=0;points=[];" parent="dcg5xdhcJVGDY37_S5At-167" vertex="1" connectable="0">
          <mxGeometry x="0.1201" relative="1" as="geometry">
            <mxPoint x="-6" y="-19" as="offset" />
          </mxGeometry>
        </mxCell>
        <mxCell id="dcg5xdhcJVGDY37_S5At-169" value="Helpers" style="shape=folder;fontStyle=1;tabWidth=110;tabHeight=30;tabPosition=left;html=1;boundedLbl=1;labelInHeader=1;container=1;collapsible=0;whiteSpace=wrap;" parent="1" vertex="1">
          <mxGeometry x="250" y="920" width="900" height="180" as="geometry" />
        </mxCell>
        <mxCell id="cSorwNS9Xo1JlhqDduFi-11" value="&lt;p style=&quot;margin:0px;margin-top:4px;text-align:center;&quot;&gt;&lt;b&gt;Views&lt;/b&gt;&lt;/p&gt;" style="verticalAlign=top;align=left;overflow=fill;html=1;whiteSpace=wrap;" parent="dcg5xdhcJVGDY37_S5At-169" vertex="1">
          <mxGeometry x="540" y="50" width="350" height="120" as="geometry" />
        </mxCell>
        <mxCell id="dcg5xdhcJVGDY37_S5At-178" value="JWTUtil" style="swimlane;fontStyle=1;align=center;verticalAlign=top;childLayout=stackLayout;horizontal=1;startSize=26;horizontalStack=0;resizeParent=1;resizeParentMax=0;resizeLast=0;collapsible=1;marginBottom=0;whiteSpace=wrap;html=1;" parent="dcg5xdhcJVGDY37_S5At-169" vertex="1">
          <mxGeometry x="360" y="93" width="160" height="34" as="geometry" />
        </mxCell>
        <mxCell id="dcg5xdhcJVGDY37_S5At-179" value="" style="line;strokeWidth=1;fillColor=none;align=left;verticalAlign=middle;spacingTop=-1;spacingLeft=3;spacingRight=3;rotatable=0;labelPosition=right;points=[];portConstraint=eastwest;strokeColor=inherit;" parent="dcg5xdhcJVGDY37_S5At-178" vertex="1">
          <mxGeometry y="26" width="160" height="8" as="geometry" />
        </mxCell>
        <mxCell id="dcg5xdhcJVGDY37_S5At-182" value="SecurityConfig" style="swimlane;fontStyle=1;align=center;verticalAlign=top;childLayout=stackLayout;horizontal=1;startSize=26;horizontalStack=0;resizeParent=1;resizeParentMax=0;resizeLast=0;collapsible=1;marginBottom=0;whiteSpace=wrap;html=1;" parent="dcg5xdhcJVGDY37_S5At-169" vertex="1">
          <mxGeometry x="190.5" y="50" width="160" height="34" as="geometry" />
        </mxCell>
        <mxCell id="dcg5xdhcJVGDY37_S5At-183" value="" style="line;strokeWidth=1;fillColor=none;align=left;verticalAlign=middle;spacingTop=-1;spacingLeft=3;spacingRight=3;rotatable=0;labelPosition=right;points=[];portConstraint=eastwest;strokeColor=inherit;" parent="dcg5xdhcJVGDY37_S5At-182" vertex="1">
          <mxGeometry y="26" width="160" height="8" as="geometry" />
        </mxCell>
        <mxCell id="dcg5xdhcJVGDY37_S5At-184" value="JWTAuthFilter" style="swimlane;fontStyle=1;align=center;verticalAlign=top;childLayout=stackLayout;horizontal=1;startSize=26;horizontalStack=0;resizeParent=1;resizeParentMax=0;resizeLast=0;collapsible=1;marginBottom=0;whiteSpace=wrap;html=1;" parent="dcg5xdhcJVGDY37_S5At-169" vertex="1">
          <mxGeometry x="360" y="50" width="160" height="34" as="geometry" />
        </mxCell>
        <mxCell id="dcg5xdhcJVGDY37_S5At-185" value="" style="line;strokeWidth=1;fillColor=none;align=left;verticalAlign=middle;spacingTop=-1;spacingLeft=3;spacingRight=3;rotatable=0;labelPosition=right;points=[];portConstraint=eastwest;strokeColor=inherit;" parent="dcg5xdhcJVGDY37_S5At-184" vertex="1">
          <mxGeometry y="26" width="160" height="8" as="geometry" />
        </mxCell>
        <mxCell id="dcg5xdhcJVGDY37_S5At-172" value="GlobalExceptionHandler" style="swimlane;fontStyle=1;align=center;verticalAlign=top;childLayout=stackLayout;horizontal=1;startSize=26;horizontalStack=0;resizeParent=1;resizeParentMax=0;resizeLast=0;collapsible=1;marginBottom=0;whiteSpace=wrap;html=1;" parent="dcg5xdhcJVGDY37_S5At-169" vertex="1">
          <mxGeometry x="20" y="93" width="159.5" height="34" as="geometry" />
        </mxCell>
        <mxCell id="dcg5xdhcJVGDY37_S5At-173" value="" style="line;strokeWidth=1;fillColor=none;align=left;verticalAlign=middle;spacingTop=-1;spacingLeft=3;spacingRight=3;rotatable=0;labelPosition=right;points=[];portConstraint=eastwest;strokeColor=inherit;" parent="dcg5xdhcJVGDY37_S5At-172" vertex="1">
          <mxGeometry y="26" width="159.5" height="8" as="geometry" />
        </mxCell>
        <mxCell id="cSorwNS9Xo1JlhqDduFi-12" value="DatabaseInitializer" style="swimlane;fontStyle=1;align=center;verticalAlign=top;childLayout=stackLayout;horizontal=1;startSize=26;horizontalStack=0;resizeParent=1;resizeParentMax=0;resizeLast=0;collapsible=1;marginBottom=0;whiteSpace=wrap;html=1;" parent="dcg5xdhcJVGDY37_S5At-169" vertex="1">
          <mxGeometry x="190.5" y="93" width="160" height="34" as="geometry" />
        </mxCell>
        <mxCell id="cSorwNS9Xo1JlhqDduFi-13" value="" style="line;strokeWidth=1;fillColor=none;align=left;verticalAlign=middle;spacingTop=-1;spacingLeft=3;spacingRight=3;rotatable=0;labelPosition=right;points=[];portConstraint=eastwest;strokeColor=inherit;" parent="cSorwNS9Xo1JlhqDduFi-12" vertex="1">
          <mxGeometry y="26" width="160" height="8" as="geometry" />
        </mxCell>
        <mxCell id="cSorwNS9Xo1JlhqDduFi-14" value="WebConfig" style="swimlane;fontStyle=1;align=center;verticalAlign=top;childLayout=stackLayout;horizontal=1;startSize=26;horizontalStack=0;resizeParent=1;resizeParentMax=0;resizeLast=0;collapsible=1;marginBottom=0;whiteSpace=wrap;html=1;" parent="dcg5xdhcJVGDY37_S5At-169" vertex="1">
          <mxGeometry x="20" y="50" width="160" height="34" as="geometry" />
        </mxCell>
        <mxCell id="cSorwNS9Xo1JlhqDduFi-15" value="" style="line;strokeWidth=1;fillColor=none;align=left;verticalAlign=middle;spacingTop=-1;spacingLeft=3;spacingRight=3;rotatable=0;labelPosition=right;points=[];portConstraint=eastwest;strokeColor=inherit;" parent="cSorwNS9Xo1JlhqDduFi-14" vertex="1">
          <mxGeometry y="26" width="160" height="8" as="geometry" />
        </mxCell>
        <mxCell id="dcg5xdhcJVGDY37_S5At-199" value="TheaterDetail" style="swimlane;fontStyle=1;align=center;verticalAlign=top;childLayout=stackLayout;horizontal=1;startSize=26;horizontalStack=0;resizeParent=1;resizeParentMax=0;resizeLast=0;collapsible=1;marginBottom=0;whiteSpace=wrap;html=1;" parent="dcg5xdhcJVGDY37_S5At-169" vertex="1">
          <mxGeometry x="719.5" y="78" width="160" height="34" as="geometry" />
        </mxCell>
        <mxCell id="dcg5xdhcJVGDY37_S5At-200" value="" style="line;strokeWidth=1;fillColor=none;align=left;verticalAlign=middle;spacingTop=-1;spacingLeft=3;spacingRight=3;rotatable=0;labelPosition=right;points=[];portConstraint=eastwest;strokeColor=inherit;" parent="dcg5xdhcJVGDY37_S5At-199" vertex="1">
          <mxGeometry y="26" width="160" height="8" as="geometry" />
        </mxCell>
        <mxCell id="dcg5xdhcJVGDY37_S5At-195" value="Basic" style="swimlane;fontStyle=1;align=center;verticalAlign=top;childLayout=stackLayout;horizontal=1;startSize=26;horizontalStack=0;resizeParent=1;resizeParentMax=0;resizeLast=0;collapsible=1;marginBottom=0;whiteSpace=wrap;html=1;" parent="dcg5xdhcJVGDY37_S5At-169" vertex="1">
          <mxGeometry x="550.5" y="78" width="160" height="34" as="geometry" />
        </mxCell>
        <mxCell id="dcg5xdhcJVGDY37_S5At-196" value="" style="line;strokeWidth=1;fillColor=none;align=left;verticalAlign=middle;spacingTop=-1;spacingLeft=3;spacingRight=3;rotatable=0;labelPosition=right;points=[];portConstraint=eastwest;strokeColor=inherit;" parent="dcg5xdhcJVGDY37_S5At-195" vertex="1">
          <mxGeometry y="26" width="160" height="8" as="geometry" />
        </mxCell>
        <mxCell id="dcg5xdhcJVGDY37_S5At-197" value="MovieDetail" style="swimlane;fontStyle=1;align=center;verticalAlign=top;childLayout=stackLayout;horizontal=1;startSize=26;horizontalStack=0;resizeParent=1;resizeParentMax=0;resizeLast=0;collapsible=1;marginBottom=0;whiteSpace=wrap;html=1;" parent="dcg5xdhcJVGDY37_S5At-169" vertex="1">
          <mxGeometry x="550.5" y="126" width="160" height="34" as="geometry" />
        </mxCell>
        <mxCell id="dcg5xdhcJVGDY37_S5At-198" value="" style="line;strokeWidth=1;fillColor=none;align=left;verticalAlign=middle;spacingTop=-1;spacingLeft=3;spacingRight=3;rotatable=0;labelPosition=right;points=[];portConstraint=eastwest;strokeColor=inherit;" parent="dcg5xdhcJVGDY37_S5At-197" vertex="1">
          <mxGeometry y="26" width="160" height="8" as="geometry" />
        </mxCell>
        <mxCell id="8aN5B0nrS4fSnAtotzE5-1" value="CorsFilter" style="swimlane;fontStyle=1;align=center;verticalAlign=top;childLayout=stackLayout;horizontal=1;startSize=26;horizontalStack=0;resizeParent=1;resizeParentMax=0;resizeLast=0;collapsible=1;marginBottom=0;whiteSpace=wrap;html=1;" parent="dcg5xdhcJVGDY37_S5At-169" vertex="1">
          <mxGeometry x="20" y="136" width="159.5" height="34" as="geometry" />
        </mxCell>
        <mxCell id="8aN5B0nrS4fSnAtotzE5-2" value="" style="line;strokeWidth=1;fillColor=none;align=left;verticalAlign=middle;spacingTop=-1;spacingLeft=3;spacingRight=3;rotatable=0;labelPosition=right;points=[];portConstraint=eastwest;strokeColor=inherit;" parent="8aN5B0nrS4fSnAtotzE5-1" vertex="1">
          <mxGeometry y="26" width="159.5" height="8" as="geometry" />
        </mxCell>
        <mxCell id="dcg5xdhcJVGDY37_S5At-170" value="" style="edgeStyle=none;html=1;startArrow=sysMLPackCont;startSize=12;endArrow=none;rounded=0;entryX=0;entryY=0;entryDx=0;entryDy=30;entryPerimeter=0;exitX=1.005;exitY=0.735;exitDx=0;exitDy=0;exitPerimeter=0;" parent="1" source="dcg5xdhcJVGDY37_S5At-151" target="dcg5xdhcJVGDY37_S5At-169" edge="1">
          <mxGeometry width="160" relative="1" as="geometry">
            <mxPoint x="150" y="940" as="sourcePoint" />
            <mxPoint x="230" y="990" as="targetPoint" />
          </mxGeometry>
        </mxCell>
        <mxCell id="dcg5xdhcJVGDY37_S5At-171" value="&amp;lt;&amp;lt;contains&amp;gt;&amp;gt;" style="edgeLabel;html=1;align=center;verticalAlign=middle;resizable=0;points=[];" parent="dcg5xdhcJVGDY37_S5At-170" vertex="1" connectable="0">
          <mxGeometry x="0.1201" relative="1" as="geometry">
            <mxPoint x="-6" y="-19" as="offset" />
          </mxGeometry>
        </mxCell>
        <mxCell id="dcg5xdhcJVGDY37_S5At-119" value="Controller" style="shape=folder;fontStyle=1;tabWidth=110;tabHeight=30;tabPosition=left;html=1;boundedLbl=1;labelInHeader=1;container=1;collapsible=0;whiteSpace=wrap;" parent="1" vertex="1">
          <mxGeometry x="250" y="110" width="540" height="150" as="geometry" />
        </mxCell>
        <mxCell id="dcg5xdhcJVGDY37_S5At-120" value="" style="group" parent="dcg5xdhcJVGDY37_S5At-119" vertex="1" connectable="0">
          <mxGeometry x="-340" y="59.54773869346734" width="880" height="90.45226130653266" as="geometry" />
        </mxCell>
        <mxCell id="dcg5xdhcJVGDY37_S5At-121" value="" style="html=1;strokeColor=none;resizeWidth=1;resizeHeight=1;fillColor=none;part=1;connectable=0;allowArrows=0;deletable=0;whiteSpace=wrap;" parent="dcg5xdhcJVGDY37_S5At-120" vertex="1">
          <mxGeometry width="880" height="49.61374034350859" relative="1" as="geometry">
            <mxPoint as="offset" />
          </mxGeometry>
        </mxCell>
        <mxCell id="dcg5xdhcJVGDY37_S5At-130" value="Theater" style="swimlane;fontStyle=1;align=center;verticalAlign=top;childLayout=stackLayout;horizontal=1;startSize=26;horizontalStack=0;resizeParent=1;resizeParentMax=0;resizeLast=0;collapsible=1;marginBottom=0;whiteSpace=wrap;html=1;" parent="dcg5xdhcJVGDY37_S5At-120" vertex="1">
          <mxGeometry x="700" y="37.45226130653265" width="160" height="34" as="geometry" />
        </mxCell>
        <mxCell id="dcg5xdhcJVGDY37_S5At-131" value="" style="line;strokeWidth=1;fillColor=none;align=left;verticalAlign=middle;spacingTop=-1;spacingLeft=3;spacingRight=3;rotatable=0;labelPosition=right;points=[];portConstraint=eastwest;strokeColor=inherit;" parent="dcg5xdhcJVGDY37_S5At-130" vertex="1">
          <mxGeometry y="26" width="160" height="8" as="geometry" />
        </mxCell>
        <mxCell id="dcg5xdhcJVGDY37_S5At-126" value="Movie" style="swimlane;fontStyle=1;align=center;verticalAlign=top;childLayout=stackLayout;horizontal=1;startSize=26;horizontalStack=0;resizeParent=1;resizeParentMax=0;resizeLast=0;collapsible=1;marginBottom=0;whiteSpace=wrap;html=1;" parent="dcg5xdhcJVGDY37_S5At-120" vertex="1">
          <mxGeometry x="530" y="37.45226130653265" width="160" height="34" as="geometry" />
        </mxCell>
        <mxCell id="dcg5xdhcJVGDY37_S5At-127" value="" style="line;strokeWidth=1;fillColor=none;align=left;verticalAlign=middle;spacingTop=-1;spacingLeft=3;spacingRight=3;rotatable=0;labelPosition=right;points=[];portConstraint=eastwest;strokeColor=inherit;" parent="dcg5xdhcJVGDY37_S5At-126" vertex="1">
          <mxGeometry y="26" width="160" height="8" as="geometry" />
        </mxCell>
        <mxCell id="dcg5xdhcJVGDY37_S5At-132" value="User" style="swimlane;fontStyle=1;align=center;verticalAlign=top;childLayout=stackLayout;horizontal=1;startSize=26;horizontalStack=0;resizeParent=1;resizeParentMax=0;resizeLast=0;collapsible=1;marginBottom=0;whiteSpace=wrap;html=1;" parent="dcg5xdhcJVGDY37_S5At-120" vertex="1">
          <mxGeometry x="360.5" y="-9.547738693467352" width="160" height="34" as="geometry" />
        </mxCell>
        <mxCell id="dcg5xdhcJVGDY37_S5At-133" value="" style="line;strokeWidth=1;fillColor=none;align=left;verticalAlign=middle;spacingTop=-1;spacingLeft=3;spacingRight=3;rotatable=0;labelPosition=right;points=[];portConstraint=eastwest;strokeColor=inherit;" parent="dcg5xdhcJVGDY37_S5At-132" vertex="1">
          <mxGeometry y="26" width="160" height="8" as="geometry" />
        </mxCell>
        <mxCell id="dcg5xdhcJVGDY37_S5At-122" value="Bank" style="swimlane;fontStyle=1;align=center;verticalAlign=top;childLayout=stackLayout;horizontal=1;startSize=26;horizontalStack=0;resizeParent=1;resizeParentMax=0;resizeLast=0;collapsible=1;marginBottom=0;whiteSpace=wrap;html=1;" parent="dcg5xdhcJVGDY37_S5At-120" vertex="1">
          <mxGeometry x="530" y="-9.547738693467352" width="160" height="34" as="geometry" />
        </mxCell>
        <mxCell id="dcg5xdhcJVGDY37_S5At-123" value="" style="line;strokeWidth=1;fillColor=none;align=left;verticalAlign=middle;spacingTop=-1;spacingLeft=3;spacingRight=3;rotatable=0;labelPosition=right;points=[];portConstraint=eastwest;strokeColor=inherit;" parent="dcg5xdhcJVGDY37_S5At-122" vertex="1">
          <mxGeometry y="26" width="160" height="8" as="geometry" />
        </mxCell>
        <mxCell id="dcg5xdhcJVGDY37_S5At-128" value="Auth" style="swimlane;fontStyle=1;align=center;verticalAlign=top;childLayout=stackLayout;horizontal=1;startSize=26;horizontalStack=0;resizeParent=1;resizeParentMax=0;resizeLast=0;collapsible=1;marginBottom=0;whiteSpace=wrap;html=1;" parent="dcg5xdhcJVGDY37_S5At-120" vertex="1">
          <mxGeometry x="700" y="-9.547738693467352" width="160" height="34" as="geometry" />
        </mxCell>
        <mxCell id="dcg5xdhcJVGDY37_S5At-129" value="" style="line;strokeWidth=1;fillColor=none;align=left;verticalAlign=middle;spacingTop=-1;spacingLeft=3;spacingRight=3;rotatable=0;labelPosition=right;points=[];portConstraint=eastwest;strokeColor=inherit;" parent="dcg5xdhcJVGDY37_S5At-128" vertex="1">
          <mxGeometry y="26" width="160" height="8" as="geometry" />
        </mxCell>
        <mxCell id="cSorwNS9Xo1JlhqDduFi-4" value="admin" style="swimlane;fontStyle=1;align=center;verticalAlign=top;childLayout=stackLayout;horizontal=1;startSize=26;horizontalStack=0;resizeParent=1;resizeParentMax=0;resizeLast=0;collapsible=1;marginBottom=0;whiteSpace=wrap;html=1;" parent="dcg5xdhcJVGDY37_S5At-120" vertex="1">
          <mxGeometry x="360" y="36.45226130653265" width="160" height="34" as="geometry" />
        </mxCell>
        <mxCell id="cSorwNS9Xo1JlhqDduFi-5" value="" style="line;strokeWidth=1;fillColor=none;align=left;verticalAlign=middle;spacingTop=-1;spacingLeft=3;spacingRight=3;rotatable=0;labelPosition=right;points=[];portConstraint=eastwest;strokeColor=inherit;" parent="cSorwNS9Xo1JlhqDduFi-4" vertex="1">
          <mxGeometry y="26" width="160" height="8" as="geometry" />
        </mxCell>
        <mxCell id="dcg5xdhcJVGDY37_S5At-213" value="&amp;lt;&amp;lt;import&amp;gt;&amp;gt;" style="endArrow=open;startArrow=none;endFill=0;startFill=0;endSize=8;html=1;verticalAlign=bottom;dashed=1;labelBackgroundColor=none;rounded=0;entryX=0;entryY=0;entryDx=0;entryDy=0;entryPerimeter=0;exitX=0;exitY=0;exitDx=0;exitDy=150;exitPerimeter=0;" parent="1" source="dcg5xdhcJVGDY37_S5At-119" target="dcg5xdhcJVGDY37_S5At-85" edge="1">
          <mxGeometry x="0.3333" y="40" width="160" relative="1" as="geometry">
            <mxPoint x="590" y="300" as="sourcePoint" />
            <mxPoint x="390" y="350" as="targetPoint" />
            <mxPoint as="offset" />
          </mxGeometry>
        </mxCell>
        <mxCell id="dcg5xdhcJVGDY37_S5At-214" value="&amp;lt;&amp;lt;import&amp;gt;&amp;gt;" style="endArrow=open;startArrow=none;endFill=0;startFill=0;endSize=8;html=1;verticalAlign=bottom;dashed=1;labelBackgroundColor=none;rounded=0;entryX=0;entryY=0;entryDx=0;entryDy=0;entryPerimeter=0;exitX=0;exitY=0;exitDx=0;exitDy=140;exitPerimeter=0;" parent="1" source="dcg5xdhcJVGDY37_S5At-85" target="dcg5xdhcJVGDY37_S5At-52" edge="1">
          <mxGeometry x="0.3333" y="40" width="160" relative="1" as="geometry">
            <mxPoint x="740" y="484" as="sourcePoint" />
            <mxPoint x="690" y="520" as="targetPoint" />
            <mxPoint as="offset" />
          </mxGeometry>
        </mxCell>
        <mxCell id="cSorwNS9Xo1JlhqDduFi-18" value="&amp;lt;&amp;lt;import&amp;gt;&amp;gt;" style="endArrow=open;startArrow=none;endFill=0;startFill=0;endSize=8;html=1;verticalAlign=bottom;dashed=1;labelBackgroundColor=none;rounded=0;entryX=0;entryY=0;entryDx=0;entryDy=0;entryPerimeter=0;exitX=0;exitY=0;exitDx=0;exitDy=180;exitPerimeter=0;" parent="1" source="dcg5xdhcJVGDY37_S5At-52" target="dcg5xdhcJVGDY37_S5At-14" edge="1">
          <mxGeometry x="0.3333" y="40" width="160" relative="1" as="geometry">
            <mxPoint x="250" y="700" as="sourcePoint" />
            <mxPoint x="250" y="760" as="targetPoint" />
            <mxPoint as="offset" />
          </mxGeometry>
        </mxCell>
      </root>
    </mxGraphModel>
  </diagram>
</mxfile>
